<svg width="500" height="500" viewBox="0 0 500 500" fill="none" xmlns="http://www.w3.org/2000/svg">
<rect width="500" height="500" rx="250" fill="white"/>
<path d="M174.204 343.75C160.787 343.75 149.579 340.625 140.579 334.375C131.579 328.125 124.787 319.625 120.204 308.875C115.704 298.125 113.454 286 113.454 272.5C113.454 259 115.704 246.875 120.204 236.125C124.704 225.375 131.329 216.875 140.079 210.625C148.829 204.375 159.621 201.25 172.454 201.25C185.371 201.25 196.621 204.333 206.204 210.5C215.787 216.667 223.204 225.125 228.454 235.875C233.787 246.542 236.454 258.75 236.454 272.5C236.454 286 233.829 298.125 228.579 308.875C223.412 319.625 216.162 328.125 206.829 334.375C197.496 340.625 186.621 343.75 174.204 343.75ZM107.704 400V205H137.704V297.5H141.954V400H107.704ZM168.704 313.5C176.037 313.5 182.037 311.667 186.704 308C191.371 304.333 194.829 299.417 197.079 293.25C199.329 287 200.454 280.083 200.454 272.5C200.454 265 199.287 258.167 196.954 252C194.621 245.75 190.996 240.792 186.079 237.125C181.246 233.375 175.037 231.5 167.454 231.5C160.371 231.5 154.621 233.208 150.204 236.625C145.871 240.042 142.704 244.833 140.704 251C138.704 257.167 137.704 264.333 137.704 272.5C137.704 280.667 138.704 287.833 140.704 294C142.704 300.167 145.954 304.958 150.454 308.375C155.037 311.792 161.121 313.5 168.704 313.5ZM244.077 340L304.577 249L245.827 160H287.577L325.827 220L363.577 160H405.577L346.827 249L407.077 340H365.327L325.827 278L286.077 340H244.077Z" fill="#1E1E1E"/>
</svg>
